<?xml version="1.0" encoding="UTF-8"?>
<svg id="_レイヤー_2" data-name="レイヤー 2" xmlns="http://www.w3.org/2000/svg" viewBox="0 0 216.68 103.81">
  <g id="_レイヤー_1-2" data-name="レイヤー 1">
    <g>
      <path d="m5.84,95.64c-.09,0-.19-.03-.26-.1-.16-.15-.18-.4-.03-.56,3.79-4.26,4.69-10.82,2.19-15.95-.86-1.76-2.09-3.36-3.28-4.9-1.12-1.46-2.28-2.96-3.15-4.63-1.91-3.64-1.92-8.74,1.37-10.95.83-.56,1.82-.91,2.78-1.24,1.53-.54,2.97-1.04,3.59-2.34.61-1.28.13-2.85-.48-4.35-.62-1.54-1.31-3.1-1.97-4.61-2.09-4.76-4.25-9.68-4.92-14.92-1.04-8.12,1.7-16.51,7.33-22.46C14.62,2.68,22.85-.52,31.01.07c.22.02.38.21.37.43-.02.22-.21.38-.43.37-7.92-.57-15.92,2.54-21.38,8.31C4.11,14.95,1.45,23.1,2.46,30.98c.65,5.13,2.79,9.99,4.86,14.7.66,1.51,1.35,3.08,1.98,4.63.68,1.67,1.2,3.44.46,4.99-.76,1.6-2.43,2.18-4.04,2.75-.91.32-1.84.65-2.59,1.15-2.93,1.97-2.86,6.59-1.11,9.92.84,1.6,1.98,3.08,3.08,4.51,1.21,1.58,2.47,3.21,3.36,5.04,2.64,5.41,1.69,12.33-2.31,16.83-.08.09-.19.13-.3.13Z"/>
      <path d="m80.11,102.75c-6.5,0-13.21-1.63-19.78-3.22-2.22-.54-4.52-1.09-6.74-1.57-14.4-3.07-29.61-3.02-43.99.15-.22.05-.43-.09-.47-.3-.05-.21.09-.43.3-.47,14.49-3.19,29.82-3.25,44.33-.15,2.23.48,4.54,1.03,6.76,1.57,10.62,2.57,21.6,5.23,31.29.87.2-.09.44,0,.53.2.09.2,0,.44-.2.53-3.86,1.74-7.9,2.39-12.03,2.39Z"/>
      <path d="m158.05,103.81c-10.43,0-20.43-1.56-28.89-3.19-1.08-.21-2.16-.42-3.24-.64-9.63-1.91-19.58-3.87-29.14-1.78-.2.05-.43-.09-.47-.3-.05-.22.09-.43.3-.47,9.71-2.13,19.76-.14,29.47,1.78,1.08.21,2.16.43,3.24.64,14.2,2.74,32.75,5.27,50.34.5,17.89-4.85,31.79-17.14,36.26-32.08.06-.21.28-.33.5-.27.21.06.33.29.27.5-4.55,15.2-18.66,27.7-36.81,32.62-7.23,1.96-14.62,2.7-21.81,2.7Z"/>
    </g>
    <g>
      <path d="m46.63,24.85c-.15.14-.24.26-.33.33l-.65-.48c.65-.67,1.25-1.36,1.77-2.07l-1.85-.37-.07-.41,2.17.44c.24-.33.52-.76.85-1.29.71.42,1.07.7,1.04.85-.02.12-.24.14-.65.11l-.34.5,2.82.57.71-.6c.29.37.53.71.72,1.01l-.22.23-1.3-.26s-.02.03-.03.06c-.05.09-.07.16-.09.21-.35.8-.81,1.47-1.4,2.04.81.61,1.17,1.08,1.1,1.45-.06.28-.22.41-.52.35-.12-.02-.24-.1-.33-.24-.29-.39-.55-.73-.81-.99-1.02.77-2.5,1.13-4.39,1.06l-.13-.39c1.67-.03,2.97-.46,3.93-1.26-.54-.44-1.08-.84-1.65-1.2-.07.07-.18.19-.33.35Zm3.2-7.19l.63-3.13c.89.21,1.32.42,1.28.6-.02.12-.21.2-.6.23l-.5,2.47,1.77.35.79-.73c.25.41.42.76.53,1.06l-.23.27-2.93-.59-.11.55c1.55.67,2.26,1.29,2.14,1.85-.06.32-.23.46-.5.4-.17-.03-.3-.15-.41-.36-.31-.55-.74-1.07-1.31-1.49l-.44,2.18-.82-.16.46-2.28c-1,.74-2.15,1.29-3.5,1.64l-.17-.36c1.42-.53,2.61-1.26,3.58-2.18l-2.78-.56-.04-.39,3.17.64Zm-.71,7.59c.51-.57.92-1.24,1.27-2.02l-2.07-.42c-.32.47-.69.95-1.11,1.41.61.24,1.23.59,1.91,1.03Zm-1.3-10.79c.96.82,1.38,1.52,1.25,2.12-.08.38-.28.53-.63.46-.2-.04-.33-.24-.33-.6,0-.54-.19-1.13-.6-1.77l.3-.22Zm10.72,14.55c-.33.19-.62.43-.88.73-1.14-1.22-1.97-2.43-2.48-3.6-1.36,1.24-2.98,1.98-4.92,2.31l-.17-.38c1.94-.51,3.52-1.44,4.76-2.79-.44-1.35-.65-3.08-.61-5.15-.55.76-1.19,1.43-1.92,2.02l-.27-.28c1.37-1.48,2.56-3.58,3.56-6.31.88.37,1.31.66,1.27.84-.03.13-.25.19-.68.19-.38.84-.71,1.56-1.05,2.13l3.53.71.86-.82c.31.44.58.84.77,1.25l-.2.24-1.53-.31-.05.18c-.67,2.29-1.58,4.14-2.74,5.54.62,1.29,1.54,2.44,2.76,3.5Zm-7.16-11.49c.59-.63,1.12-1.34,1.6-2.1.67.46,1,.79.97.97-.03.13-.24.16-.62.08-.39.37-.96.8-1.71,1.27l-.23-.22Zm6.21,2.24l.05-.15-2.7-.54s-.05.08-.1.14c-.06.11-.11.19-.13.23-.04,2.07.22,3.81.72,5.21.91-1.36,1.59-3.01,2.16-4.89Z"/>
      <path d="m70.84,29.14c-.08.38-.28.52-.61.45-.15-.03-.29-.2-.47-.51-.64-1.12-1.65-2.13-3.02-3.07l.19-.27c.93.45,1.74.91,2.39,1.4,1.09-.86,2.15-1.92,3.21-3.19l-4.34-.51-.11.1c-1.25,1.14-2.75,2.06-4.49,2.83l-.2-.28c1.98-1.07,3.59-2.31,4.8-3.77.54-.64.83-1.1.89-1.4.05-.27-.07-.52-.33-.78l.28-.26c.93.55,1.38,1,1.3,1.37-.01.07-.08.16-.18.21-.18.1-.36.26-.55.5-.25.31-.61.69-1.03,1.15l4,.46.57-.44c.59.71.86,1.14.82,1.34-.02.08-.07.11-.18.12l-.46.05c-1.3,1.06-2.53,1.97-3.69,2.76.89.73,1.3,1.32,1.21,1.75Z"/>
      <path d="m91.85,29.24c-.13.93-.31,1.53-.68,2.26-.39.72-1.07,1.43-2.04,1.77-.95.35-1.79.46-2.95.45-1.16,0-2.14-.29-2.69-.52-.16-.05-.23-.13-.2-.21.02-.08.13-.13.26-.09.15.05.47.15.87.23.65.11,1.37.17,2.06.12.69-.07,1.47-.24,2.23-.57s1.54-1.13,1.91-2.08c.36-.92.42-1.86.34-2.79-.1-1.06-.45-1.75-1.05-2.36-.64-.63-1.71-1.09-2.78-1.2-.14-.01-.29,0-.45-.02-.04.34-.14.87-.21,1.29-.11.55-.32,1.34-.71,2.23-.37.91-.95,1.98-1.76,2.7-.8.71-1.68,1.12-2.46.96-.77-.15-1.24-.72-1.44-1.61-.2-.89-.13-1.6.28-2.53.38-.88.88-1.56,1.58-2.09.7-.55,1.45-1.01,2.48-1.32,1.07-.31,2.27-.32,3.3-.1,1.01.22,1.9.66,2.51,1.23.69.62,1.16,1.38,1.4,2.1.21.68.31,1.22.19,2.15Zm-5.69-5.01c-.79.05-1.59.24-2.29.54-1.01.46-1.96,1.2-2.48,2.05-.53.85-.74,1.88-.64,2.51.12.61.66.84,1.37.76.69-.07,1.32-.36,1.96-1.03.63-.65,1.14-1.44,1.51-2.49.32-.89.47-1.67.58-2.35Z"/>
      <path d="m99.58,29.35c-.02.12-.28.2-.71.26l-1.67,8.3-.87-.17,1.55-7.7c-.65.82-1.41,1.66-2.3,2.48l-.29-.3c2.02-2.19,3.66-4.74,4.94-7.69.88.35,1.29.64,1.25.86-.03.13-.25.19-.66.2-.65,1.19-1.31,2.27-2,3.21.53.23.79.4.75.57Zm7.69,4.7l-2.63-.53c-.26,1.06-.62,1.94-1.06,2.6,1.18,1.19,2.78,2.15,4.76,2.87-.3.18-.57.44-.8.78-2.05-.95-3.52-1.99-4.42-3.11-1.24,1.07-2.96,1.55-5.19,1.44l-.11-.4c2-.03,3.57-.62,4.78-1.76-.33-.52-.71-1.22-1.1-2.09l.39-.15c.4.77.79,1.35,1.1,1.76.3-.48.55-1.19.79-2.1l-2.53-.51-.14.72-.85-.17,1.16-5.77c.09.05.4.27.9.63l2.42.49.37-1.83-3.65-.73-.09-.4,7.42,1.49.94-.82c.33.43.61.85.84,1.26l-.21.25-4.37-.88-.37,1.83,2.47.5.7-.55c.52.59.78.97.75,1.12-.01.05-.07.11-.18.12l-.42.19-.96,4.8-.85-.17.17-.87Zm-3.05-2.85l-2.55-.51-.35,1.77,2.53.51c.03-.06.07-.25.12-.53l.25-1.23Zm.42-2.08l-2.55-.51-.34,1.7,2.55.51.34-1.7Zm2.71,4.55l.35-1.77-2.6-.52-.24,1.18c-.06.3-.1.5-.13.58l2.62.53Zm.43-2.15l.34-1.7-2.6-.52-.34,1.7,2.6.52Z"/>
      <path d="m115.89,34.82c-1.12,1.46-2.41,2.67-3.87,3.66l-.23-.34c1.8-1.46,3.38-3.17,4.37-5.26l.06-.13-2.85-.57-.11-.4,3.12.63.51-2.52c-1.04.02-1.94,0-2.68-.05l-.09-.4c2.33-.03,4.14-.31,5.38-.81.64.54.91.91.87,1.11-.02.08-.13.13-.35.09-.13-.03-.28-.09-.44-.16-.41.07-.9.1-1.52.16l-.25.02-.55,2.73,1.37.27.96-.88c.29.47.53.92.71,1.3l-.21.25-2.9-.58-.3,1.48c1.68,1.29,2.45,2.33,2.29,3.11-.08.4-.3.56-.64.5-.23-.05-.38-.28-.47-.67-.17-.78-.58-1.61-1.26-2.51l-1.35,6.72-.88-.18,1.32-6.58Zm4.05,4.28l1.64-8.15c.94.24,1.4.47,1.36.67-.03.13-.25.23-.68.3l-1.48,7.35-.83-.17Zm.18,1.86c.73.23,1.46.43,2.14.57.45.09.72-.03.78-.36l2.25-11.18c.94.24,1.39.47,1.35.71-.02.12-.25.21-.63.27l-2.17,10.82c-.13.65-.49.99-1.1,1.05-.14.02-.4,0-.77-.05.06-.3-.08-.55-.42-.76-.31-.18-.8-.4-1.52-.65l.08-.4Z"/>
      <path d="m132.61,40.08l.65-.56c.47.61.7.99.67,1.14-.01.07-.06.11-.17.14l-.38.15-.81,4.02-.82-.16.18-.92-2.2-.44-.19.97-.87-.17,1.05-5.25c.28.16.54.4.88.7l1.98.4Zm-2.18-.04l-.61,3.03,2.2.44.61-3.03-2.2-.44Zm2.43-1.9l.86-.73c.24.34.48.72.67,1.14l-.24.25-4.1-.82-.09-.42,2.9.58Zm1.39-3.62l.91-.75c.25.33.47.67.65,1.01l.1.19-.2.24-5.65-1.14-.06-.41,4.25.85Zm-.98,1.76l.84-.73c.18.3.4.69.65,1.15l-.22.22-4.13-.83-.08-.4,2.93.59Zm.59-3.8l.89-.72c.15.2.32.5.53.89.03.04.08.12.16.26l-.22.23-3.83-.77-.08-.4,2.55.51Zm1.06,6.47l-.09-.42,5.3,1.07.68-.56c.5.6.72.98.69,1.14-.02.08-.1.14-.19.17l-.39.13c-.74,1.01-1.61,1.9-2.63,2.63.81.98,1.88,1.85,3.22,2.61-.27.14-.56.39-.87.73-1.25-.88-2.24-1.82-2.95-2.85-1.34.79-2.86,1.28-4.55,1.51l-.15-.39c1.59-.32,2.99-.92,4.23-1.82-.67-1.14-1.16-2.42-1.44-3.77l-.87-.17Zm3.29-5.51l-.19.93c-.38,1.88-1.37,3.09-2.94,3.6l-.19-.33c1.19-.65,1.97-1.79,2.31-3.46l.34-1.72c.28.18.53.38.78.61l1.8.36.68-.54c.46.56.68.92.66,1.03-.01.07-.07.11-.17.16l-.36.15-.55,2.73c-.05.25.1.38.43.45.52.1.83.08.96-.1.17-.26.39-.89.65-1.86l.37.25-.07.33c-.14.72-.2,1.16-.16,1.39.03.18.15.31.38.35-.08.42-.28.64-.63.65-.25.02-.7-.04-1.35-.17-.68-.14-1.11-.27-1.27-.41-.2-.14-.24-.43-.16-.86l.64-3.17-1.95-.39Zm-1.94,5.78c.45,1.32.96,2.41,1.55,3.26.98-.76,1.76-1.59,2.3-2.48l-3.85-.77Z"/>
      <path d="m149.42,39.34c-.03.13-.25.21-.65.29l-1.67,8.32-.83-.17,1.54-7.67c-.65.82-1.42,1.62-2.27,2.42l-.28-.32c1.91-2.06,3.53-4.63,4.84-7.7.91.37,1.34.65,1.3.87-.03.13-.28.2-.74.22-.57,1.13-1.21,2.24-1.92,3.24.48.18.71.35.68.5Zm1.24.06l-.73-.15-.11-.4,3.05.61.4-1.97-2.57-.52-.06-.41,2.7.54.37-1.83c.98.23,1.45.46,1.41.68-.02.12-.27.21-.69.26l-.21,1.07,2.2.44.37-1.83c.96.23,1.42.44,1.38.66-.03.13-.25.23-.68.28l-.21,1.07,1.27.25.85-.78c.27.38.49.77.67,1.17l-.23.27-2.63-.53-.39,1.97,1.38.28.9-.76c.33.41.6.8.81,1.17l-.24.26-8.1-1.63-.42,2.1c-.61,3.02-1.71,5.15-3.36,6.36l-.24-.29c1.24-1.36,2.17-3.45,2.73-6.25l.42-2.1Zm4.18,6.82l-.56,2.78-.83-.17.56-2.78-1.9-.38-.63,3.15-.85-.17,1.63-8.1c.23.13.53.37.94.69l4.43.89.64-.5c.51.55.76.9.74,1-.01.07-.06.13-.17.17l-.38.18-1.16,5.78c-.14.68-.64.93-1.46.77.03-.25.01-.41-.1-.52-.1-.11-.39-.23-.85-.45l.08-.4c.38.13.7.23,1,.29.33.07.53-.03.58-.32l.3-1.52-2-.4Zm-2.66-.93l1.9.38.35-1.75-1.9-.38-.35,1.75Zm.42-2.12l1.9.38.32-1.6-1.9-.38-.32,1.6Zm3.33-3.09l.4-1.97-2.2-.44-.4,1.97,2.2.44Zm-1.02,5.76l2,.4.35-1.75-2-.4-.35,1.75Zm.42-2.12l2,.4.32-1.6-2-.4-.32,1.6Z"/>
      <path d="m164.69,41.87c-.17-.26-.28-.7-.07-.85.17-.14.43.03.63.16.23.15.46.28.95.36.5.1,1.51,0,2.08-.07.55-.05,1.77-.18,2.86-.24,1.05-.07,2.26-.12,2.81-.09.53.02,1.21.21,1.45.45.23.22.34.55.2.73-.16.18-.36.14-.61.03-.26-.09-.58-.24-.97-.33-.4-.08-1.19-.13-1.89-.17-.03,0-.07,0-.12,0-.25.14-.65.32-.99.51-.47.29-.82.55-1.18,1.06-.27.4-.46,1-.69,1.63-.24.59-.51,1.65-.58,2.62-.05.58.08,1,.4,1.38.26.33.74.53,1.28.6.58.06.92.17,1.18.27.25.12.49.39.59.62.09.23-.11.45-.46.41-.39-.04-.98-.14-1.62-.33-.62-.18-1.21-.45-1.67-1.01-.36-.44-.47-.94-.44-1.68.03-.77.18-1.58.45-2.41.29-.86.57-1.45.79-1.94.22-.51.6-.94,1-1.2.24-.16.63-.39.94-.52-.3,0-.6.04-.92.09-.66.11-1.73.33-2.29.42-.59.09-1.25.25-1.84.19-.61-.05-1.03-.38-1.25-.7Zm8.55,2.91c-.18-.3-.45-.61-.81-.98-.11-.13-.17-.26-.07-.36.06-.06.21-.03.29,0,.25.05.53.19.86.38.33.19.77.55.86.88.1.3-.11.53-.35.55-.25.02-.58-.2-.79-.49Zm1.47-.43c-.19-.35-.46-.58-.9-.89-.14-.1-.17-.26-.09-.35.07-.09.2-.03.3,0,.25.03.56.15.89.33.31.17.77.5.89.82.11.3-.08.56-.34.57-.23.04-.6-.19-.75-.48Z"/>
      <path d="m43.87,49.96l-.13.67-.83-.17.71-3.53c-.96.4-1.99.66-3.1.83l-.1-.37c1.96-.44,3.63-1.23,5-2.34l-4.12-.83-.07-.41,4.57.92c.38-.32.67-.65.9-.95l-2-.4-.1.5-.85-.17.86-4.3c.26.17.58.39.93.65l6.57,1.32.67-.51c.51.55.76.9.73,1.05-.01.05-.05.09-.13.11l-.44.19-.64,3.17-.83-.17.09-.47-3.88-.78c-.38.43-.67.75-.88.95l6.2,1.25.92-.79c.34.45.59.86.76,1.24l-.2.24-4.45-.89c.94,1.3,2.35,2.35,4.22,3.15-.34.21-.61.43-.8.71-.78-.43-1.54-.97-2.24-1.65l-.76,3.78-.83-.17.13-.67-5.87-1.18Zm2.74-11.07l-3.88-.78-.07-.41,4.03.81.26-1.32c.92.24,1.37.43,1.33.61-.02.12-.23.2-.66.27l-.12.6,3.25.65.26-1.32c.91.22,1.36.41,1.32.61-.02.1-.23.18-.64.24l-.13.63,2.58.52.87-.8c.32.39.57.81.78,1.23l-.22.25-4.08-.82-.19.95-.82-.16.19-.95-3.25-.65-.19.95-.82-.16.19-.95Zm-2.67,10.7l5.87,1.18.29-1.43-5.87-1.18-.29,1.43Zm.36-1.8l5.87,1.18.27-1.32-5.87-1.18-.26,1.32Zm.46-4.78l6.87,1.38.23-1.17-6.87-1.38-.23,1.17Zm.31-1.55l6.87,1.38.21-1.07-6.87-1.38-.21,1.07Zm5.3,5.8c-.36-.47-.66-.93-.92-1.4l-3.03-.61c-.4.34-.86.64-1.35.94l5.3,1.06Z"/>
      <path d="m67.85,50.77c.19-.69.15-1.36-.42-1.89-.63-.56-1.48-.77-2.2-.7-.64.06-1.49.43-2.21.82-.6.31-1.33.77-1.6.96-.28.17-.53.14-.86.07-.35-.07-.37-.23-.51-.64s-.22-.79-.06-1.16c.16-.35.38-.95.66-1.64.27-.66.49-1.5.68-2.07.2-.57.41-.82.81-.93.4-.09,1.15-.12,1.46-.09.32.03.78.07.88-.08.1-.17-.02-.51-.29-.82-.22-.27-.56-.51-.85-.69-.15-.1-.35-.23-.29-.35.06-.14.21-.11.38-.1.15.01.39.04.63.14.45.16.87.49,1.15.82.31.36.49.74.57,1.22.06.41-.08.68-.24.77-.14.08-.32.11-.49.02-.19-.11-.53-.31-.9-.44-.37-.14-.98-.2-1.3-.16-.32.02-.56.13-.65.37-.08.23-.26.68-.48,1.34-.2.67-.48,1.55-.61,1.91-.13.39-.3.81-.09.97.23.17.45.18.9,0,.48-.16,1.17-.48,1.95-.72.76-.23,1.38-.31,1.99-.24,1.37.19,2.19.6,2.77,1.51.53.83.46,1.91-.02,2.58-.74,1-1.67,1.42-2.52,1.68-.87.26-2.16.29-3.01.21-.87-.09-1.51-.23-1.74-.3-.21-.06-.47-.16-.44-.31.04-.13.26-.1.49-.04.41.1,1.04.17,1.71.19,1.01,0,1.9-.15,2.76-.47,1.12-.42,1.76-.98,1.98-1.77Z"/>
      <path d="m78.33,47.94c.16-.54.48-1.52.54-1.85.07-.33-.08-.74-.12-.89-.06-.15-.03-.35.1-.43.12-.08.3.04.45.16.13.11.37.32.54.66.19.35-.01.76-.18,1.16-.17.42-.53,1.16-.7,1.58-.15.4-.68,1.91-.84,2.48-.18.55-.48,1.53-.53,2.3-.05.77.21,1.39.54,1.88.35.5,1.15.85,1.65.92.52.09,1.13.05,1.54-.06.39-.11,1.2-.35,1.68-.53.47-.17,1.19-.51,1.5-.65.29-.13.76-.44.86-.49.1-.08.24-.09.3-.03.05.08.03.18-.07.26-.11.1-.41.33-.81.57-.41.23-1.26.74-2.25,1.2-1,.48-2.03.6-2.81.53-.78-.07-1.65-.52-2.12-1.03-.49-.51-.86-1.33-.84-2.13,0-.81.35-1.75.51-2.36.17-.61.88-2.75,1.04-3.26Z"/>
      <path d="m94.45,54.28c.36-.48.79-1.09,1.14-1.64-.26.07-.5.14-.66.18-.37.1-.85.25-1.13.29-.27.07-.71,0-1.09-.25-.36-.26-.46-.58-.36-.71.12-.18.41-.21.6-.14.22.1.51.21.98.2.47,0,1.09-.09,1.53-.18.14-.02.36-.07.59-.09.33-.63.5-1.18.62-1.59.12-.43.07-.89,0-1.13-.07-.24-.16-.5.09-.62.25-.11.68.15.73.42.06.31.1.78-.1,1.44-.13.41-.37.9-.64,1.36.2-.05.36-.07.45-.08.32-.06.96-.1,1.52.2.77.41.95,1.32.91,2.28-.03.95-.34,1.8-.84,2.8-.47.96-1.07,1.52-1.55,1.84-.36.24-.88.48-1.14.43s-.43-.29-.58-.57c-.14-.27-.42-.59-.67-.83-.26-.24-.55-.47-.48-.62.08-.14.37-.12.68.07.23.13.92.7,1.36.57.44-.12,1.1-.63,1.53-1.41.41-.77.72-1.68.83-2.4.13-.74,0-1.37-.43-1.65-.43-.29-1.13-.16-1.67-.06-.09.02-.2.03-.29.06-.05.06-.07.11-.12.17-.44.66-.97,1.56-1.44,2.23-.48.67-1.04,1.37-1.5,1.95-.33.42-1.03,1.25-1.26,1.53-.23.28-.57.6-.79.5-.21-.08-.38-.27-.31-.6.05-.23.53-.64.9-.93.34-.3.87-.78,1.24-1.23.36-.43.85-1.13,1.37-1.79Zm9.81,1.85c-.04.63-.24.92-.59.96-.35.02-.79-.12-1.1-.2-.31-.1-.84-.29-1.04-.36-.19-.09-.29-.21-.25-.33.02-.1.14-.2.29-.17.15.03.34.03.51.03.15.01.43.02.57-.09.14-.11.21-.32.3-.72.1-.4.15-.84.05-1.19-.1-.35-.28-.61-.46-.82-.1-.12-.22-.36-.06-.48.12-.06.28.07.46.23.18.16.44.47.79,1.08.38.61.56,1.45.52,2.06Zm-.75-4.22c-.2-.3-.45-.61-.83-.98-.11-.13-.16-.26-.07-.34.08-.07.22-.04.3-.03.26.07.55.21.86.4.33.19.77.55.88.89.1.3-.1.52-.37.55-.25.02-.58-.2-.77-.48Zm1.46-.44c-.19-.35-.44-.57-.9-.89-.12-.09-.17-.26-.09-.35.07-.07.22-.04.3-.03.25.05.56.16.89.33.33.19.78.54.89.84.12.32-.08.56-.32.58-.25.04-.6-.19-.77-.48Z"/>
      <path d="m114.63,63.9c.47-.62.86-1.28,1.21-1.99.76.45,1.14.78,1.11.97-.02.12-.24.16-.62.14-.36.34-.78.68-1.2.99l3.27.66,1.02-.85c.36.44.66.88.88,1.3l-.24.26-13.08-2.63-.08-.4,4.6.92c-.12-.09-.17-.28-.18-.56-.02-.52-.21-1.03-.56-1.53l.27-.21c.99.75,1.43,1.41,1.32,1.98-.04.22-.17.35-.38.41l2.67.54Zm4.9-5.24l.94-.8c.25.31.53.71.83,1.22l-.23.27-12.65-2.54-.08-.4,11.18,2.25Zm-1.85,1.1l.65-.49c.52.54.76.86.73,1.01,0,.05-.05.09-.15.16l-.41.21-.4,1.97-.83-.17.08-.38-6.95-1.4-.09.43-.85-.17.64-3.18c.35.23.64.44.92.67l6.65,1.34Zm-4.03-7.54l.29-1.47c.94.24,1.38.45,1.34.67-.02.1-.23.2-.64.25l-.14.72,2.15.43.3-1.5c.93.2,1.37.43,1.33.65-.03.13-.25.23-.65.29l-.15.73,2.17.44.67-.58c.54.58.78.94.76,1.05-.01.07-.08.12-.17.16l-.43.17-.75,3.73-.85-.17.09-.43-8.27-1.66-.09.45-.85-.17.97-4.85c.31.18.64.42.97.7l1.95.39Zm-2.86,6.55l-.31,1.53,6.95,1.4.31-1.53-6.95-1.4Zm.27-4.87l-.28,1.42,2.17.44.29-1.42-2.17-.44Zm2.52-1.31l-2.17-.44-.28,1.38,2.17.44.28-1.38Zm2.36,3.77l.28-1.42-2.15-.43-.29,1.42,2.15.43Zm-1.51-3.6l-.28,1.38,2.15.43.28-1.38-2.15-.43Zm4.9,2.8l-2.27-.46-.28,1.42,2.27.46.29-1.42Zm-1.92-2.21l-.28,1.38,2.27.46.28-1.38-2.27-.46Z"/>
      <path d="m127.75,60.97c.36-.48.79-1.09,1.16-1.64-.27.07-.49.13-.66.18-.38.1-.85.25-1.13.29-.27.07-.73,0-1.09-.25-.38-.27-.44-.57-.36-.71.12-.18.39-.22.6-.14.21.08.51.21.97.19.47,0,1.11-.09,1.53-.18.16-.02.36-.07.59-.09.33-.63.5-1.18.61-1.59.12-.43.11-.9.02-1.12-.09-.24-.16-.5.09-.62.25-.11.66.15.71.42.06.31.1.78-.1,1.44-.12.41-.37.9-.64,1.36.2-.05.38-.06.47-.08.32-.06.94-.11,1.52.2.75.41.95,1.32.91,2.28-.04.95-.35,1.8-.84,2.8-.49.96-1.06,1.5-1.56,1.84-.36.24-.88.48-1.14.43-.25-.05-.43-.29-.56-.56-.13-.29-.43-.61-.67-.83-.26-.24-.56-.48-.48-.62s.37-.12.66.06c.25.14.93.71,1.38.57.43-.14,1.1-.63,1.53-1.41.41-.77.7-1.68.83-2.4.13-.74-.02-1.37-.43-1.65-.43-.29-1.13-.16-1.69-.06-.07,0-.18.03-.29.06-.03.06-.07.11-.1.17-.41.68-.95,1.56-1.43,2.23-.48.67-1.04,1.35-1.52,1.95-.33.42-1.01,1.25-1.26,1.53-.23.27-.55.6-.78.5-.23-.08-.4-.27-.33-.6.05-.23.54-.62.9-.93.34-.3.88-.78,1.23-1.23.36-.43.87-1.13,1.37-1.79Zm9.81,1.85c-.04.63-.22.93-.58.96-.35.02-.79-.12-1.1-.2-.31-.1-.84-.29-1.04-.36-.21-.09-.29-.21-.26-.33.04-.1.16-.19.31-.16.15.03.32.03.5.03.19.02.45,0,.57-.09.15-.13.22-.32.32-.72.1-.4.15-.84.03-1.19-.1-.35-.26-.61-.44-.82-.11-.14-.22-.36-.06-.48.1-.07.28.07.46.23.18.16.44.47.79,1.08.36.63.54,1.44.51,2.06Z"/>
      <path d="m142.69,64.13c.24-.77.5-1.36.85-2.17.36-.85.59-1.22.8-1.73.19-.53.23-1.06.13-1.33-.11-.23-.17-.52-.02-.61.21-.1.51.15.69.43.17.29.28.7.24,1.14-.05.42-.32.92-.5,1.2-.18.29-.56.89-.78,1.32-.24.4-.44.92-.62,1.35-.18.47-.28.81-.37,1.16-.07.28-.1.48-.03.5.08.02.17-.14.26-.28.24-.32.57-.67.71-.79.15-.13.26-.19.35-.12.09.09.03.21-.08.33-.16.18-.55.83-.69,1.56-.15.73-.13,1.33-.04,1.93.05.46-.09,1.04-.37,1.09-.29.06-.59-.24-.76-.62-.17-.36-.28-.85-.22-1.83.06-.98.22-1.78.46-2.53Zm4.85,3.19c.21.25.48.46.83.69.34.22,1.05.4,1.77.5.74.1,1.46,0,1.81.07.36.09.74.22.79.57.07.34-.43.52-1.05.55-.63.01-1.35-.1-1.97-.28-.61-.17-1.24-.49-1.68-.8-.42-.31-.81-.82-.96-1.09-.17-.29-.18-.57-.03-.61.21-.08.33.24.49.41Zm1.3-6.48c-.21-.15-.39-.32-.29-.46.1-.14.31-.06.65.13s.86.29,1.33.37c.47.08.96.04,1.51-.03.41-.06.81.04.88.28.09.26-.18.55-.7.62-.52.07-1.28-.01-1.87-.2-.59-.19-.98-.37-1.52-.72Z"/>
      <path d="m165.27,61.37l.38.08c-.02.36.1.73.33,1.12.21.32.82,1.08,1.83,2.27.9,1.12,1.47,1.82,1.67,2.16.41.65.55,1.24.45,1.74-.22,1.1-1.27,1.91-3.16,2.45l-.18-.3c1.36-.56,2.09-1.17,2.23-1.86.07-.37-.1-.89-.56-1.6-.42-.66-1.28-1.75-2.51-3.28l-.45-.54-1.65,8.2c-.14.72-.52,1.21-1.12,1.53-.53.29-1.16.36-1.85.22-1.17-.23-1.66-.73-1.5-1.5.08-.38.31-.7.72-.93.58-.32,1.26-.41,2.01-.26.53.11.98.32,1.33.63l2.04-10.13Z"/>
    </g>
  </g>
</svg>