<?xml version="1.0" encoding="UTF-8"?>
<svg id="_レイヤー_2" data-name="レイヤー 2" xmlns="http://www.w3.org/2000/svg" viewBox="0 0 272.06 130.34">
  <g id="_レイヤー_1-2" data-name="レイヤー 1">
    <g>
      <path d="m7.33,120.08c-.12,0-.24-.04-.33-.13-.21-.18-.22-.5-.04-.71,4.76-5.35,5.89-13.59,2.75-20.02-1.08-2.21-2.62-4.21-4.11-6.16-1.41-1.83-2.86-3.72-3.96-5.81-2.4-4.58-2.42-10.97,1.73-13.75,1.05-.7,2.29-1.14,3.48-1.56,1.92-.67,3.73-1.31,4.5-2.94.76-1.61.16-3.58-.6-5.47-.78-1.93-1.64-3.89-2.47-5.78-2.62-5.98-5.34-12.16-6.18-18.73-1.3-10.19,2.14-20.73,9.2-28.2C18.35,3.37,28.69-.65,38.93.09c.28.02.48.26.46.53-.02.28-.27.48-.54.46-9.95-.72-19.99,3.19-26.84,10.44C5.16,18.77,1.82,29,3.08,38.9c.82,6.44,3.51,12.55,6.1,18.46.83,1.9,1.7,3.86,2.49,5.81.85,2.1,1.51,4.32.58,6.27-.96,2.01-3.05,2.74-5.08,3.45-1.14.4-2.32.81-3.26,1.45-3.67,2.47-3.6,8.27-1.4,12.46,1.06,2.01,2.49,3.87,3.87,5.67,1.52,1.98,3.1,4.03,4.22,6.33,3.31,6.79,2.12,15.48-2.9,21.13-.1.11-.24.17-.37.17Z"/>
      <path d="m100.58,129.01c-8.16,0-16.58-2.04-24.84-4.04-2.79-.68-5.67-1.37-8.46-1.97-18.08-3.86-37.18-3.79-55.23.19-.27.06-.54-.11-.6-.38-.06-.27.11-.54.38-.6,18.19-4.01,37.44-4.08,55.66-.19,2.8.6,5.7,1.3,8.49,1.98,13.33,3.23,27.12,6.57,39.29,1.1.25-.11.55,0,.66.25.11.25,0,.55-.25.66-4.85,2.18-9.92,3-15.1,3Z"/>
      <path d="m198.44,130.34c-13.1,0-25.65-1.95-36.27-4-1.35-.26-2.71-.53-4.07-.8-12.09-2.39-24.59-4.86-36.59-2.24-.26.06-.54-.11-.59-.38-.06-.27.11-.54.38-.6,12.2-2.67,24.8-.18,37,2.24,1.36.27,2.71.54,4.06.8,17.83,3.44,41.12,6.61,63.2.63,22.46-6.09,39.91-21.52,45.52-40.28.08-.26.35-.41.62-.34.26.08.42.36.33.62-5.71,19.09-23.42,34.78-46.22,40.95-9.08,2.46-18.36,3.39-27.38,3.39Z"/>
    </g>
    <g>
      <path d="m63.88,39.4c-.53-.04-1.1-.03-1.52-.01-.44.02-1.53.37-1.66.41-.13.03-.43.23-.77.73-.36.52-.48,1.01-.46,1.59,0,.47.29.8.71,1.13.43.35,1.2.57,1.57.64.35.07.61.33.72.54.1.21.19.37.01.63-.19.27-.57.09-1.13-.07-.55-.18-1.15-.49-1.61-.88-.39-.32-.9-.89-1.01-1.43-.13-.56,0-1.2.33-1.79.28-.53.67-.82.83-.94.14-.09.03-.17-.1-.12-.14,0-.74.16-1.1.23-.34.05-1.5.29-1.8.35-.27.07-.55-.04-.66-.17-.13-.15-.23-.39-.29-.61-.07-.24.18-.54.57-.75.41-.25,1.09-.75,1.57-1.11.49-.35,1.53-1.15,1.99-1.45.48-.3,1.72-1.32,2-1.49.28-.17.46-.32.38-.41-.11-.13-.37.01-.66.08-.29.08-.95.17-1.4.17-.41-.01-.88-.19-1.14-.52-.26-.33-.09-.83.08-.9.11-.05.23.05.32.15.09.07.21.16.39.23.18.05.47.06,1.02.1.53.05,1.24-.03,1.57-.06.35-.03.53-.03.65.04.13.06.29.11.49.31.17.17.23.31.19.51-.04.2-.27.4-.51.54-.22.15-1.11.63-1.69.98-.55.34-1.81,1.18-2.29,1.48-.5.32-1.55,1.08-1.86,1.33-.31.25-.59.42-.59.52s.32.13.49.13c.24,0,.9-.1,1.47-.17.55-.08,1.8-.35,2.38-.44.58-.11,1.36-.28,1.72-.35.39-.06.77-.12,1.03-.14.27-.03.76-.09,1-.04.27.05.49.22.71.45.23.25.14.51.03.61-.09.1-.31.15-.63.1-.3-.04-.81-.09-1.33-.11Z"/>
      <path d="m83.43,46.78c-.2.24-.68.64-1.24.98-.57.34-1.01.46-1.54.44-.53-.02-.83-.17-1.11-.41-.34-.29-.54-.61-.57-1.14-.04-.49.26-1.44.47-2.25.2-.81.38-1.55.55-2.21.18-.74.35-1.42.17-1.7-.17-.28-.61-.42-1.15-.4-.54.01-1.31.22-1.91.53-.56.27-1.05.57-1.9,1.09-.02.1-.04.18-.06.28-.15.85-.28,1.75-.35,2.32-.06.56-.16,1.04-.29,1.78-.07.37-.19,1.04-.43,1.37-.13.2-.29.34-.61.35-.29,0-.41-.19-.41-.39,0-.21.05-.6.03-1.12-.04-.51-.14-1.21-.24-2.15-.03-.2-.04-.39-.08-.57h-.02c-.58.54-.99,1.03-1.23,1.55-.24.51-.42.73-.63.74-.21.03-.36-.09-.49-.41-.11-.32.01-.5.4-.98.39-.46.94-.97,1.5-1.52.09-.1.2-.2.31-.32-.06-.38-.12-.7-.16-.95-.08-.54-.19-1.22-.33-1.57-.14-.34.11-.62.55-.86.43-.24,1.14-.4,1.61-.51.32-.06.59-.09.86-.04.08-.4.13-.81.15-1.11.03-.43-.14-.79-.34-1.14-.18-.3-.21-.61-.05-.69.23-.13.5.01.8.33.32.31.54.78.65,1.24.12.46-.03.91-.25,1.32-.06.13-.14.27-.19.41.17.12.28.23.31.36.05.2-.06.54-.21.72-.17.17-.31.34-.28.38.04.08.13.11.35-.03.38-.25,1.64-.76,2.36-1.05.64-.27,1.22-.29,1.62-.21.38.08.71.28.93.72.2.4.21.87.12,1.32-.06.39-.25,1.27-.5,2.07-.31.96-.54,1.92-.72,2.73-.18.83.09,1.2.6,1.33.51.14,1.15-.05,1.53-.21.4-.16.95-.49,1.18-.63.24-.14.42-.02.22.2Zm-8.57-6.89c-.05-.11-.15-.22-.4-.27-.28-.06-.82.04-1.1.11-.28.08-.79.48-.65,1.07.09.42.18.9.29,1.5.45-.43.93-.84,1.16-1.03.23-.2.38-.34.5-.52.06-.3.14-.6.19-.85Zm-1.12,5.48c.03-.22.09-.54.19-1.23.08-.5.21-1.14.37-1.85-.44.31-.82.62-1.15.91.14.86.25,1.75.32,2.06.06.32.23.32.27.11Z"/>
      <path d="m97.25,46.11c-.53-.04-1.08-.04-1.52-.01-.44.02-1.51.37-1.64.42-.13.03-.43.23-.77.73-.36.52-.48,1.01-.47,1.59.03.47.31.81.71,1.13.43.35,1.22.57,1.59.65.35.07.61.33.71.54.11.21.19.37,0,.62-.18.28-.56.1-1.1-.06-.57-.18-1.16-.51-1.61-.88-.4-.32-.9-.89-1.03-1.44-.11-.56,0-1.18.34-1.79.29-.51.67-.82.83-.94.12-.1.03-.17-.11-.13-.12,0-.73.18-1.09.23-.36.05-1.51.29-1.8.35-.27.07-.55-.04-.68-.17-.11-.14-.22-.39-.29-.61-.06-.24.17-.52.58-.75.39-.23,1.09-.75,1.57-1.11.49-.35,1.52-1.15,1.99-1.46.46-.31,1.72-1.32,1.98-1.49.28-.17.48-.32.36-.41-.08-.12-.35.02-.64.08-.29.08-.95.17-1.39.17-.43-.02-.88-.19-1.14-.52-.26-.33-.09-.83.06-.91.11-.05.23.05.33.15.09.07.21.18.37.23.18.05.49.06,1.02.1.54.06,1.22-.03,1.57-.07.35-.03.54-.03.67.05.13.06.29.11.48.3.19.18.25.31.21.51s-.27.4-.51.54c-.24.14-1.15.62-1.69.98-.55.34-1.83,1.18-2.31,1.48-.5.32-1.55,1.08-1.86,1.33-.33.25-.59.42-.57.53,0,.1.32.13.48.13.26,0,.92-.09,1.47-.17.57-.08,1.8-.35,2.39-.44.57-.09,1.34-.29,1.72-.35.38-.06.77-.12,1.03-.14.27-.03.76-.09,1-.04.25.05.48.2.71.45.23.25.14.51.03.61-.09.1-.31.15-.63.1-.32-.05-.83-.1-1.35-.11Zm1.59-2.39c-.2-.28-.45-.61-.81-.98-.12-.11-.16-.24-.07-.34.06-.06.21-.03.28-.01.26.07.55.2.88.38.32.2.75.57.85.88.11.32-.09.54-.34.56-.25.02-.6-.21-.79-.49Zm1.45-.42c-.19-.35-.42-.59-.88-.9-.14-.1-.18-.24-.09-.35.05-.06.2-.03.28-.01.27.05.56.15.9.34.31.17.76.52.89.84.11.3-.07.54-.34.57-.23.02-.61-.17-.77-.48Z"/>
      <path d="m116.77,53.48c-.2.24-.68.64-1.24.98-.57.34-1.01.46-1.54.44-.53-.02-.83-.17-1.11-.41-.34-.29-.54-.61-.57-1.14-.04-.49.25-1.44.47-2.25.2-.81.38-1.55.55-2.21.18-.74.35-1.42.17-1.7-.17-.28-.61-.42-1.15-.4-.54.01-1.31.22-1.91.53-.56.27-1.05.57-1.9,1.09-.02.1-.04.18-.06.28-.15.85-.28,1.75-.35,2.32-.06.56-.16,1.04-.29,1.78-.07.37-.19,1.04-.43,1.37-.13.2-.29.34-.61.35-.29,0-.41-.19-.41-.39,0-.21.05-.6.03-1.12-.04-.51-.14-1.21-.24-2.15-.03-.2-.04-.39-.08-.57h-.02c-.58.54-.99,1.03-1.23,1.55-.24.51-.42.73-.63.74-.21.03-.36-.09-.49-.41-.11-.32.01-.5.4-.98.39-.46.94-.97,1.5-1.52.09-.1.2-.2.31-.32-.06-.38-.12-.7-.16-.95-.08-.54-.19-1.22-.33-1.57-.14-.34.11-.62.55-.86.43-.24,1.14-.4,1.61-.51.32-.06.59-.09.86-.04.08-.4.13-.81.15-1.11.03-.43-.14-.79-.34-1.14-.18-.3-.21-.61-.05-.69.23-.13.5.01.8.33.32.31.54.78.65,1.24.12.46-.03.91-.25,1.32-.06.13-.14.27-.19.41.17.12.28.23.31.36.05.2-.06.54-.21.72-.17.17-.31.34-.28.38.04.08.13.11.35-.03.38-.25,1.64-.76,2.36-1.05.64-.27,1.22-.29,1.62-.21.38.08.71.28.93.72.2.4.21.87.12,1.32-.06.39-.25,1.27-.5,2.07-.31.96-.54,1.92-.72,2.73-.18.83.09,1.2.6,1.33.51.14,1.15-.05,1.53-.21.4-.16.95-.49,1.18-.63.24-.14.42-.02.22.2Zm-8.57-6.89c-.05-.11-.15-.22-.4-.27-.28-.06-.82.04-1.1.11-.28.08-.79.48-.65,1.07.09.42.18.9.29,1.5.45-.43.93-.84,1.16-1.03.23-.2.38-.34.5-.52.06-.3.14-.6.19-.85Zm-1.12,5.48c.03-.22.09-.54.19-1.23.08-.5.21-1.14.37-1.85-.44.31-.82.62-1.15.91.14.86.25,1.75.31,2.06.06.32.23.32.27.11Z"/>
      <path d="m122.22,52.06c.24-.77.5-1.36.85-2.17.36-.85.59-1.22.8-1.73.19-.53.23-1.06.13-1.33-.11-.23-.17-.52-.02-.61.21-.1.51.15.69.43.17.29.28.7.24,1.14-.05.42-.32.92-.5,1.2-.18.29-.56.89-.78,1.32-.24.4-.44.92-.62,1.35-.18.47-.28.81-.37,1.16-.07.28-.1.48-.03.5.08.02.17-.14.26-.28.24-.32.57-.67.71-.79s.26-.19.35-.12c.09.09.03.21-.08.33-.16.18-.55.83-.69,1.56-.15.73-.13,1.33-.04,1.93.05.46-.09,1.04-.37,1.09-.29.06-.59-.24-.76-.62-.17-.36-.28-.85-.22-1.83.06-.98.22-1.78.46-2.53Zm4.85,3.19c.21.25.48.46.83.69.34.22,1.05.4,1.77.5.74.1,1.46,0,1.81.07.36.09.74.22.79.57.07.34-.43.52-1.05.55-.63.01-1.35-.1-1.97-.27-.61-.17-1.24-.49-1.68-.81-.42-.31-.81-.82-.96-1.09-.17-.29-.18-.57-.03-.61.21-.08.33.24.49.41Zm1.3-6.48c-.21-.15-.39-.32-.29-.46.1-.14.31-.06.65.13.34.19.86.29,1.33.37.47.08.96.04,1.51-.02.41-.06.81.04.88.28.09.26-.18.55-.7.62-.52.07-1.28-.01-1.87-.2-.59-.19-.98-.37-1.52-.72Z"/>
      <path d="m140.98,53.02c-.02.12-.27.21-.71.27l-1.69,8.43-.83-.17,1.55-7.72c-.68.97-1.37,1.82-2.07,2.52l-.31-.27c1.67-2.11,3.13-4.69,4.36-7.79.89.39,1.3.69,1.26.89-.03.13-.27.21-.71.19-.49,1.08-1.05,2.1-1.62,3.07.57.2.82.39.79.57Zm3.07-2.94l6.37,1.28.67-.58c.54.59.8.96.77,1.09-.02.08-.1.14-.21.2l-.4.16-2.28,11.33-.87-.17.18-.92-6.62-1.33-.18.92-.87-.17,2.51-12.5c.25.15.51.31.74.53l.18.16Zm-.23.35l-2.08,10.35,6.62,1.33,2.08-10.35-6.62-1.33Zm1.73,5.98l.44-2.2-2.28-.46-.07-.41,2.43.49.45-2.22c.95.21,1.39.43,1.34.65-.03.13-.25.21-.66.27l-.29,1.47,1.05.21.79-.73.18.24c.16.22.33.52.54.87l-.21.27-2.42-.49-.44,2.2.65.13.6-.49c.47.51.72.84.69.95,0,.05-.07.11-.17.14l-.34.16-.68,3.38-.8-.16.16-.78-2.35-.47-.18.88-.8-.16.9-4.5.17.12c.06.05.16.14.37.25.13.11.26.19.33.26l.62.12Zm-.84.21l-.49,2.43,2.35.47.49-2.43-2.35-.47Z"/>
      <path d="m155.98,54.29c-.03.91-.09,1.65-.19,2.18-.31,1.53-.78,2.24-1.41,2.11-.35-.07-.48-.27-.42-.57.02-.1.14-.25.32-.49.55-.65,1-1.76,1.33-3.36l.37.13Zm-1.15,10.71l2.7-13.45c.98.2,1.46.43,1.41.65-.02.12-.25.23-.7.31l-2.55,12.67-.87-.17Zm9.08-7.73l-.73,3.63,1.8.36.91-.84c.31.51.56.93.74,1.26l-.24.25-3.28-.66-.84,4.18,2.55.51.98-.9.15.2c.28.42.48.79.66,1.12l-.24.26-9.15-1.84-.11-.4,4.27.86.84-4.18-2.85-.57-.08-.4,3,.6.73-3.63-2-.4c-.59,1.06-1.32,2.01-2.22,2.87l-.32-.29c1.18-1.46,2.17-3.45,2.98-5.94.88.44,1.32.75,1.28.95-.03.13-.24.18-.64.18-.36.85-.66,1.46-.88,1.89l1.88.38.77-3.82c1.03.22,1.5.46,1.46.69-.03.13-.26.24-.72.29l-.61,3.02,2.15.43.93-.85c.24.34.48.7.7,1.11l.09.17-.22.25-3.72-.75Zm-5.5-3c.69,1.13.96,2.01.83,2.7-.08.42-.31.6-.66.53-.23-.05-.33-.27-.28-.68.09-.71.02-1.5-.23-2.37l.35-.17Z"/>
      <path d="m173.98,62.31c.36-.48.79-1.09,1.15-1.64-.26.07-.5.14-.66.18-.37.1-.85.25-1.13.29-.27.07-.71,0-1.09-.25-.36-.26-.46-.58-.36-.71.12-.18.41-.21.6-.14.22.1.51.21.98.2.47,0,1.09-.09,1.53-.18.14-.02.36-.07.59-.09.33-.63.5-1.18.61-1.59.12-.43.08-.89,0-1.13-.07-.24-.16-.5.09-.62.25-.11.68.15.73.42.06.31.1.78-.1,1.44-.13.41-.37.9-.64,1.36.2-.05.36-.07.45-.08.32-.06.96-.1,1.52.2.77.41.95,1.32.91,2.28-.03.95-.35,1.8-.84,2.8-.47.96-1.07,1.52-1.55,1.84-.36.24-.88.48-1.14.43s-.43-.29-.58-.57c-.14-.27-.42-.59-.67-.83-.26-.24-.55-.47-.48-.62.08-.14.37-.12.68.07.23.13.92.7,1.36.57.44-.12,1.1-.63,1.53-1.41.41-.77.72-1.68.83-2.4.13-.74,0-1.37-.43-1.65-.43-.29-1.13-.16-1.67-.06-.09.02-.2.03-.29.06-.05.06-.07.11-.12.17-.44.66-.97,1.56-1.44,2.23-.48.67-1.04,1.37-1.5,1.95-.33.42-1.03,1.25-1.26,1.53-.23.28-.57.6-.79.5-.21-.08-.38-.27-.31-.6.05-.23.53-.64.9-.93.34-.3.87-.78,1.23-1.23.36-.43.85-1.13,1.36-1.79Zm9.81,1.85c-.04.63-.24.92-.59.96-.35.02-.79-.12-1.1-.2-.31-.1-.84-.29-1.04-.36-.19-.09-.29-.21-.25-.33.02-.1.14-.2.29-.17s.34.03.51.03c.15.01.43.02.57-.09.14-.11.2-.32.3-.72.1-.4.15-.84.05-1.19-.1-.35-.28-.61-.46-.82-.1-.12-.22-.36-.06-.48.12-.06.28.07.46.23.18.16.44.47.79,1.08.38.61.56,1.45.52,2.06Zm-.75-4.22c-.2-.3-.45-.61-.83-.98-.11-.13-.16-.26-.07-.34.08-.07.22-.04.3-.03.26.07.55.21.86.4.33.19.77.55.88.89.1.3-.1.52-.37.55-.25.02-.58-.2-.77-.48Zm1.46-.44c-.19-.35-.44-.57-.9-.89-.12-.09-.17-.26-.09-.35.07-.07.22-.04.3-.03.25.05.56.16.89.33.33.19.78.54.89.84.13.32-.08.56-.32.58-.25.04-.6-.19-.77-.48Z"/>
      <path d="m188.77,67.24c.42-.9,1.28-1.7,2.27-2.25.49-.27,1.04-.43,1.62-.54,0-.02.03-.05.03-.06.08-.4.27-1.11.41-1.58-.57-.03-1.09-.2-1.39-.43-.25-.21-.37-.51-.24-.6.17-.16.45.07.58.15.12.09.33.19.64.25.18.04.37.04.56.04.09-.45.32-1.34.38-1.61.07-.33-.07-.53-.22-.72-.14-.17-.14-.36-.03-.46.14-.11.51.15.71.35.2.2.38.42.42.69.04.23-.12.5-.22.84-.06.2-.15.49-.21.81.27-.07.53-.21.68-.28.26-.17.51-.3.79-.33.29-.05.57.01.71.19.14.15.07.33-.12.51-.19.17-.61.35-1.1.46-.34.05-.71.1-1.12.12,0,.03-.01.07-.02.1-.07.37-.21.95-.33,1.48.19-.01.35-.03.52-.02,0-.05,0-.12-.02-.16-.09-.24-.13-.48-.02-.52.18-.1.35.07.43.28.06.12.09.23.11.42,1.25.09,2.33.42,3.32,1.07.97.63,1.39,1.65,1.31,2.78-.07,1.15-.64,2.3-1.68,2.91-1.15.65-2.01.85-3.16.87-.9,0-2.18-.2-2.41-.28-.21-.06-.29-.18-.28-.26.02-.08.16-.11.31-.09.17.03,1.27.17,2.38.13,1.12-.04,2.32-.52,3.12-1.38.73-.81.98-1.76.79-2.82-.15-.79-.82-1.36-1.53-1.68-.67-.31-1.43-.48-2.25-.56-.12.69-.38,1.22-1.11,2.15-.19.24-.37.45-.53.66-.07.33-.1.66-.14.87-.07.42-.13.74-.38,1.02-.23.28-.54.26-.67.14-.14-.1-.04-.42.02-.79,0-.03.01-.05.01-.07-.21.17-.42.35-.64.51-.66.51-1.66.74-2.29.2-.64-.54-.48-1.59-.03-2.5Zm.74,1.5c.29.27.94.17,1.29-.05.37-.22.82-.53,1.15-.83.09-.43.17-.85.2-1.02.05-.25.21-1.03.36-1.7-.33.07-.63.2-.98.38-.69.33-1.3.87-1.69,1.5-.39.63-.63,1.43-.35,1.72Zm4.46-3.58c0-.05.04-.1.05-.15-.21,0-.4-.01-.59,0-.12.5-.25,1.18-.34,1.61.04-.04.09-.1.11-.13.36-.4.63-1,.77-1.34Z"/>
      <path d="m214.3,74.14c-.76.58-1.59.83-2.48.87-.9.06-1.71-.14-2.67-.52-.97-.42-1.3-.85-1.2-1.35.08-.5.81-.77,1.38-.76.59,0,1.25.16,1.67.66.36.44.27.83-.01,1.19.82.06,1.62-.02,2.24-.35.76-.4,1.21-1.09,1.36-1.86.17-.76-.21-1.81-1.06-2.41-.85-.59-1.85-.82-2.95-.7-1.12.12-1.89.51-2.52,1.07-.63.55-1.16,1.26-1.38,1.67-.22.41-.42.61-.66.68-.11.03-.31.08-.53-.19-.15-.19-.1-.54-.04-.77.06-.21.58-.66.96-.99.4-.34.95-.87,1.65-1.37.69-.5,1.81-1.42,2.26-1.76.44-.36,1.86-1.52,2.1-1.73.23-.2.35-.36.28-.45-.07-.1-.37-.04-.56.03-.21.08-1.12.4-1.64.57-.53.15-.91.2-1.32.12-.42-.08-.66-.36-.79-.54-.13-.2-.15-.46-.08-.57.1-.15.27-.14.39-.06.14.06.33.17.55.21.21.06.42.07.98-.05.54-.1,1.27-.28,1.9-.47.63-.19,1.02-.33,1.34-.29.34.05.63.32.8.61.17.28.16.43.09.57-.06.14-.16.21-.43.31-.26.09-.85.42-1.39.78-.54.38-1.23.95-1.72,1.3,0,0-.49.35-1.43,1.01.27-.12.53-.21,1.01-.28.7-.1,1.41-.1,2.24.16.85.26,1.5.66,2.04,1.24.54.58.91,1.34.8,2.33-.1.93-.48,1.55-1.18,2.07Zm-4.75-1.23c-.54-.09-.93.16-.77.54.1.21.48.46,1.18.62.77-.45.27-1.02-.41-1.16Z"/>
      <path d="m35.74,60.45c.37.47.87.78,1.4,1.06.88.45,1.99.82,2.71.91.73.08,1.68,0,2.02-.06.33-.07.72.02.93.19.21.15.41.39.42.57,0,.19-.16.37-.85.44-.7.05-1.82-.02-2.89-.29-1.04-.26-1.81-.56-2.74-1.05-.73-.41-1.22-.82-1.45-1.16-.22-.36-.26-.8-.25-1.11.01-.33.12-.51.22-.49.15.01.2.23.22.39.04.15.06.38.24.6Zm5.49-5.56c-.36-.09-.72-.21-1.29-.41-.55-.2-1.13-.42-1.44-.58-.31-.18-.43-.47-.31-.55.16-.12.35-.03.54.09.17.1.57.25.91.32.33.07.81.09,1.33.11.52.02,1.23-.1,1.64-.05.41.05.53.19.54.49.02.32-.26.36-.58.46-.24.07-.34.14-.61.28-.23.11-.61.26-.82.36-.23.11-.35.09-.4.02-.08-.1-.03-.2.05-.27.09-.03.43-.26.43-.26Z"/>
      <path d="m53.26,61.02c.2-.31.62-1.04.95-1.63-.2-.02-.44-.05-.64-.09-.62-.12-1.08-.25-1.48-.5-.27-.19-.28-.51-.19-.63.1-.07.21,0,.3.06.05.03.19.16.4.25.14.08.35.14.74.2.35.05.68.08,1.24.02.27-.55.43-1.18.48-1.55.08-.4-.02-.87-.12-1.06-.09-.23-.15-.55.06-.65.19-.08.44.05.64.25.19.18.32.39.37.92.04.25-.04.53-.15.77.3.23.72.47,1.01.6.32.13.57.29.62.47.06.2-.02.34-.3.56-.3.22-.95.42-1.53.46-.23,0-.5,0-.78-.02-.09.19-.16.35-.21.46-.22.41-.82,1.41-1.02,1.79-.2.38-.91,1.66-1.26,2.28-.35.62-1.34,2.07-1.5,2.27-.2.2-.43.23-.65.03-.22-.2-.14-.6-.09-.87.05-.27.38-.6.65-1.01.29-.43.65-.89,1.03-1.42.39-.56,1.12-1.53,1.4-1.96Zm2.43-3.22c-.06.11-.11.22-.15.3-.04.1-.11.27-.22.48.36-.08.59-.16.66-.2.11-.03.14-.18.05-.27-.04-.06-.19-.18-.35-.31Zm5.06,9.91c.14.36-.26.61-.68.56-.63-.06-1.6-.22-2.77-.64-1.18-.44-1.64-.97-1.81-1.77-.17-.78.18-1.4.6-2.03.46-.65.78-.97.89-1.07.13-.13.24-.18.28-.12.08.05.03.2-.1.31-.17.16-.43.5-.8,1.14-.35.64-.39,1.17-.22,1.53.2.46.63.84,1.11,1.04.48.2.9.28,1.39.33.45.02.98.02,1.3.09.33.07.69.26.81.63Zm-.85-7.23c0-.09-.19-.19-.33-.24-.29-.11-.65-.22-1.11-.24-.33-.01-.62,0-.82,0-.18.02-.47,0-.5-.1-.08-.21.28-.29.46-.32.47-.08.99-.11,1.36-.11.33,0,.65.03,1.07.13.4.08.7.21.95.45.2.2.27.54.17.71-.1.17-.31.23-.47.25-.13.03-.42.09-.8.17-.38.08-.83.23-1.14.34-.33.09-.53.24-.78.42-.12.1-.3.27-.34.21-.06-.05.03-.22.1-.33.25-.28.59-.51.89-.71.26-.19.75-.39.94-.45.17-.09.35-.12.35-.19Zm1.37-1.04c-.2-.28-.45-.59-.81-.96-.12-.11-.16-.26-.07-.34.07-.07.22-.04.28-.01.28.06.57.18.88.38.33.19.76.55.87.87.09.31-.09.55-.35.55-.25.02-.6-.19-.79-.49Zm1.45-.42c-.17-.35-.42-.57-.88-.9-.14-.1-.18-.23-.09-.33.05-.08.22-.04.28-.03.27.05.56.16.9.35.33.17.78.52.89.82.13.32-.07.54-.34.57-.23.02-.61-.17-.77-.48Z"/>
      <path d="m79.13,65.27c.19.97.04,1.88-.53,2.79-.58.92-1.4,1.61-2.62,2.06-1.23.45-2.47.66-3.02.71-.53.05-.79.07-.8-.07-.02-.14.33-.19.73-.27,1.09-.16,1.81-.48,2.85-.99,1.03-.49,1.72-1.49,2.07-2.36.35-.87.53-2.03-.34-3.15-.69-.88-2.07-1.11-3.13-.92-.99.17-1.97.42-2.76.88-.08.04-.14.09-.22.15-.12.58-.24,1.18-.34,1.7-.23,1.15-.39,2.18-.45,2.82-.08.64-.16,1.22-.32,1.5-.18.29-.52.5-.72.46-.22-.03-.5-.27-.5-.88,0-.62-.1-1.15-.2-1.84-.08-.47-.16-1.04-.27-1.6-.17.16-.32.3-.47.43-.4.35-.62.69-.77,1.01-.17.33-.37.65-.59.63-.19,0-.37-.25-.49-.58-.11-.33.31-.75.47-.89.18-.14.51-.47.87-.8.21-.18.49-.46.77-.71-.14-.62-.2-1.01-.32-1.35-.15-.38-.18-.64-.09-.95.1-.26.55-.41,1-.56.47-.17.98-.39,1.4-.59.23-.11.55-.24.85-.33,0-.02.03-.05.03-.06.15-.73.22-1.1.17-1.54-.03-.44-.2-.72-.4-.95-.15-.19-.28-.51-.12-.63.19-.19.69.03.99.35.33.34.46.73.5,1.21.04.34-.17.87-.37,1.57.15.1.26.35.33.6.09.35-.09.71-.46,1.1.75-.39,1.73-.66,2.16-.73,1.05-.15,1.76-.22,2.93.28,1.36.58,1.96,1.38,2.16,2.52Zm-10.36-.3c.06-.06.11-.12.17-.14.35-.29,1.36-1.15,1.59-1.35.25-.19.19-.6,0-.52-.19.07-.99.27-1.3.36-.29.08-.57.16-.66.25-.09.09-.12.25.03.73.05.17.13.41.18.66Zm1.03,3.31c.03-.15.07-.42.12-.69.05-.27.22-1.12.32-1.62.06-.32.15-.82.25-1.3-.32.23-.61.47-.92.72-.2.15-.41.32-.58.49.06.22.11.42.15.62.15.74.32,1.54.4,1.74.07.19.24.2.27.04Z"/>
      <path d="m91.67,70.93c.55-.93.77-1.93.83-2.73.05-.79-.04-1.38-.48-1.93-.44-.57-1.08-.82-1.72-.87-.63-.04-1.17.15-1.59.41-.63.39-.97.95-1.1,1.62-.14.72.17,1.32.31,1.71.15.38.16,1-.26,1.14-.42.12-.79-.3-1.02-.9-.23-.58-.22-1.41-.12-2.17.12-.77.36-1.56.62-2.08.26-.5.47-1.05.62-1.59.14-.51.02-.9-.17-1.16-.17-.21-.24-.38-.17-.52.08-.14.35-.12.54-.01.2.11.39.2.68.78.27.57.05,1.29-.25,1.79-.31.51-.75,1.08-.82,1.67.15-.25.38-.51.71-.71.43-.26,1.22-.57,2.03-.51.8.06,1.58.32,2.14.99.4.5.83,1.14.88,2.19.06,1.1-.11,1.76-.4,2.52-.29.76-.61,1.33-1.31,1.96-.71.62-1.46.97-2.21,1.15-.77.19-1.42.24-2.05.21-.62,0-1.03-.07-1.26-.13-.25-.05-.35-.16-.34-.22.03-.08.11-.13.33-.11.31.03.65.06,1.05.05,1.01-.04,1.86-.22,2.67-.69.81-.48,1.38-.99,1.86-1.85Z"/>
      <path d="m112.32,72.32c-.13.93-.31,1.53-.68,2.26-.39.72-1.07,1.43-2.04,1.77-.95.35-1.79.46-2.95.45-1.16,0-2.14-.29-2.69-.52-.16-.05-.23-.13-.2-.21.02-.08.13-.13.26-.09.15.05.47.15.87.23.65.11,1.37.17,2.06.12.69-.07,1.47-.24,2.23-.58.76-.33,1.54-1.13,1.91-2.08.36-.92.42-1.86.34-2.79-.1-1.06-.45-1.75-1.05-2.36-.64-.63-1.71-1.09-2.78-1.2-.14-.01-.29,0-.45-.02-.03.34-.14.87-.21,1.29-.11.55-.32,1.34-.71,2.23-.37.91-.95,1.98-1.76,2.7-.8.71-1.68,1.12-2.47.96-.77-.15-1.24-.72-1.44-1.61-.2-.89-.13-1.6.28-2.53.38-.88.88-1.56,1.58-2.09.7-.55,1.45-1.01,2.48-1.32,1.07-.31,2.27-.32,3.3-.1,1.01.22,1.9.66,2.51,1.23.69.62,1.16,1.38,1.4,2.1.21.68.31,1.22.19,2.15Zm-5.69-5.01c-.79.05-1.59.23-2.29.54-1.01.46-1.96,1.2-2.48,2.05-.53.85-.74,1.88-.64,2.51.12.61.66.84,1.37.76.69-.07,1.32-.36,1.96-1.03.63-.65,1.14-1.44,1.51-2.49.32-.89.48-1.67.58-2.35Z"/>
      <path d="m117.89,79.89c-.23.02-.37-.06-.39-.15,0-.07.08-.14.33-.18.23-.02.57-.09,1.05-.22.69-.17,1.53-.47,2.4-.89.96-.47,1.81-1,2.73-1.86.91-.84,1.46-1.67,2.05-2.71.25-.47.2-.72-.29-.79-.44-.07-1.08-.15-1.7-.19-.61-.05-1.69-.06-2.47-.13-.75-.05-1.39-.35-1.73-.73-.31-.37-.41-.83-.17-.99.22-.15.47.09.7.23.25.15.46.28.97.45.52.17,1.28.27,1.93.33.65.06,1.93.23,2.41.28.46.02.7-.03.89-.13.17-.09.42-.09.55.04.13.13.37.42.62.73.25.31.34.64.28.77-.06.11-.22.15-.44.14-.24-.01-.38.27-.7.73-.64.93-1.35,1.78-2.2,2.49-.83.68-2.09,1.42-3.36,1.98-1.27.56-2.35.72-3.45.8Zm9.32-8.95c-.17.14-.56.03-1.05-.19-.51-.22-1.09-.29-1.56-.33-.47-.06-1.23-.07-1.97-.13-.7-.05-1.16-.2-1.46-.5-.3-.3-.4-.77-.19-.87.18-.12.38.08.62.21.39.2,1.2.41,1.95.46.75.06,1.48.07,1.96.08.55,0,.91.06,1.33.39.36.28.55.72.38.89Z"/>
      <path d="m133.99,78.86c.36-.08.64-.15,1.18-.34,1-.32,1.74-.64,2.88-1.21,1.12-.59,2.2-1.19,3.1-1.79.9-.6,1.48-1.06,1.85-1.36.37-.31.4-.53.34-.73-.08-.21-.05-.46.1-.5.39-.15.95.36,1.11.67.15.29.15.64-.01.83-.18.22-.45.36-.79.55-.35.19-.99.53-1.64.94-.3.18-.61.38-.93.58.18.07.39.15.57.29.33.24.54.49.54.77.01.28-.18.38-.3.63s-.26.95-.39,1.52c-.14.53-.29,1.29-.42,2-.14.7-.26,1.54-.38,2.14-.1.6-.36.95-.79.85-.39-.11-.45-.78-.34-1.07s.33-.94.48-1.6c.15-.65.35-1.47.53-2.2.16-.71.27-1.18.35-1.65.09-.47.11-.81.01-1.11-.04-.13-.16-.24-.29-.3-.19.1-.37.2-.55.31-.67.39-1.82.87-2.7,1.21-.9.34-1.39.47-1.91.6-.5.14-.97.24-1.55.29-.25.02-.31-.29-.04-.32Z"/>
      <path d="m162.71,79.48c-.27.29-.68.73-1.52,1.52-.75.72-1.53,1.39-2.6,2.06-1.07.69-2.13,1.18-3.26,1.65-1.11.45-2.11.67-2.83.7-.74.04-1.01-.15-1.24-.54-.23-.39-.18-1.01.02-1.12l.52.24c.15.13.43.21.76.26.57.08,1.73-.07,2.6-.43.89-.36,2.1-.95,3-1.49.9-.53,1.53-.89,2.55-1.71,1.03-.83,1.54-1.27,1.67-1.4.15-.13.3-.18.39-.11.09.07.1.19-.06.39Zm-10.73-1.91c-.34-.28-.52-.42-.44-.57.12-.15.36-.07.7.05.36.11.72.28,1.15.56.43.29.66.5,1,.96.33.43.45,1.11-.01,1.28-.37.13-.81-.2-1.15-.77-.44-.76-.79-1.16-1.25-1.52Z"/>
      <path d="m168.7,82.12c.21.15.45.28.83.43.4.15.69.19,1.46.26s1.27.06,1.85.11c.15.01.31.03.48.04.11-.45.18-.83.22-1.12.08-.47.15-1.03.17-1.44.01-.41-.02-.66-.23-.93-.21-.25-.28-.66-.14-.79.17-.14.57.01.89.21.31.2.56.42.68.69.15.31.11.59.03.7-.06.13-.12.34-.15.47-.06.21-.17.66-.23,1.24-.03.25-.11.62-.19,1.05.1.02.21,0,.31.03.66.06,1.42.17,1.91.18.46.02.92.01,1.31.11.41.1.75.32.95.54.18.21.25.48.2.63-.08.14-.36.08-.86-.03-.5-.1-1.21-.28-2.02-.48-.66-.17-1.15-.21-1.96-.32-.12.51-.27,1.02-.42,1.49-.22.77-.48,1.45-.96,2.25-.45.76-.99,1.4-1.6,1.95-.56.53-1.27.99-1.65,1.21-.26.16-.58.28-.65.13-.04-.13.12-.25.38-.41.44-.31,1.06-.9,1.57-1.51.5-.58,1.13-1.49,1.49-2.49.37-.97.55-1.71.76-2.5.02-.08.04-.18.05-.25-.93-.12-1.58-.15-2.01-.18-.51-.03-1.37,0-1.99-.1-.64-.09-.95-.28-1.14-.63-.2-.37-.18-.64.01-.74.2-.12.48.1.65.2Z"/>
      <path d="m184.97,93.49c.28,0,.53.02,1.14-.08.87-.12,1.58-.34,2.25-.67.68-.35,1.32-.9,1.87-1.36.54-.46,1.14-1.09,1.57-1.77.42-.7.66-1.2.84-1.69.19-.5.19-1.04.08-1.35-.12-.34-.2-.65-.02-.75.29-.17.76.26.96.5.2.21.34.48.43.81.09.33-.11.62-.29.84-.16.21-.58,1.06-1.13,1.82-.57.75-1.1,1.36-1.81,1.94-.75.63-1.46,1.03-2.05,1.3-.56.29-1.24.55-2.05.7-.67.13-1.16.18-1.78.08-.19-.02-.35-.09-.32-.2.02-.1.11-.12.32-.13Zm1.48-6.66c-.09-.14-.22-.37-.12-.44.2-.15.47.06.71.33.32.39.5.81.56,1.29.06.48-.15.73-.41.75-.24,0-.45-.19-.51-.4-.07-.19-.02-.49-.03-.79.01-.31-.1-.63-.2-.75Zm2.54-.41c-.03-.21-.06-.39-.15-.53-.09-.14-.24-.34-.11-.42.16-.09.41.12.57.29.18.21.46.56.56,1.1.08.31,0,.85-.32.91-.34.07-.59-.15-.57-.51,0-.29.04-.62.03-.83Z"/>
      <path d="m211.52,88.3c.08.28-.07.52-.31.7-.26.17-.45.45-.69.83-.49.82-.92,1.39-1.71,2.22-.81.83-1.61,1.46-2.72,2.16-1.11.7-1.8.96-2.69,1.23-.9.27-1.51.43-2.07.48-.32.02-.52-.02-.55-.13-.03-.11.09-.21.29-.24.18-.03.42-.12,1.07-.31,1.05-.29,1.59-.5,2.58-1.02,1.09-.58,2.03-1.32,2.68-2.01.65-.67,1.3-1.47,1.63-2.01.34-.56.61-1.13.78-1.46.13-.23.23-.44.13-.56-.08-.1-.41-.12-.78-.16-.62-.09-1.32-.18-2.04-.19-.73,0-1.5.04-2.12,0-.62-.02-.95-.21-1.28-.55-.32-.32-.37-.77-.19-.87.21-.1.4-.02.58.12.17.1.45.26.91.39.49.13.99.18,1.82.28.78.07,1.86.17,2.35.2.48.04.72.06,1.01-.04.26-.09.51-.14.78.09.27.21.46.56.54.84Zm2.14.31c-.4.09-.7-.07-.75-.24-.05-.18.07-.37.32-.4.27-.03.47-.2.52-.45.1-.5-.25-.76-.65-.75-.47,0-.66.51-.53.99.05.2.06.41-.08.47-.15.04-.32-.15-.4-.51-.28-1.18.65-1.83,1.49-1.61.92.24,1.33.96.86,1.91-.15.3-.39.49-.8.6Z"/>
      <path d="m223.6,88.6l.38.08c-.02.36.1.73.33,1.12.21.32.82,1.08,1.83,2.27.9,1.12,1.47,1.82,1.66,2.16.41.65.55,1.24.45,1.74-.22,1.1-1.27,1.91-3.16,2.45l-.18-.3c1.36-.56,2.09-1.17,2.23-1.86.07-.37-.1-.89-.56-1.6-.42-.66-1.28-1.75-2.51-3.28l-.45-.54-1.65,8.2c-.14.72-.52,1.21-1.12,1.53-.53.29-1.16.36-1.85.22-1.17-.23-1.66-.73-1.5-1.5.08-.38.31-.7.72-.93.58-.32,1.26-.41,2.01-.26.53.11.98.32,1.33.63l2.04-10.13Z"/>
    </g>
  </g>
</svg>